<?xml version="1.0"?>
<svg xmlns="http://www.w3.org/2000/svg" xmlns:xlink="http://www.w3.org/1999/xlink" version="1.1" id="Capa_1" x="0px" y="0px" viewBox="0 0 511.999 511.999" style="enable-background:new 0 0 511.999 511.999;" xml:space="preserve" width="512px" height="512px"><g><g>
	<g>
		<g>
			<path d="M487.934,74.551H374.978c-24.734-39.75-68.814-66.269-118.977-66.269c-50.166,0-94.247,26.521-118.981,66.273     c-0.031,0-0.062-0.005-0.093-0.005H24.067C10.796,74.551,0,85.347,0,98.617v298.199c0,13.271,10.796,24.066,24.067,24.066     h174.735l0.001,34.701h-58.768c-4.142,0-7.5,3.357-7.5,7.5v25.634h-9.066c-4.142,0-7.5,3.357-7.5,7.5s3.358,7.5,7.5,7.5h265.066     c4.143,0,7.5-3.357,7.5-7.5s-3.357-7.5-7.5-7.5h-9.066v-25.634c0-4.143-3.357-7.5-7.5-7.5H313.2v-34.701h174.733     c13.271,0,24.066-10.796,24.066-24.066V98.617C512,85.347,501.204,74.551,487.934,74.551z M380.804,140.816h-51.137     c-0.486-18.32-2.748-35.603-6.471-51.266h43.141C374.598,105.001,379.707,122.376,380.804,140.816z M323.195,207.082     c3.723-15.663,5.984-32.946,6.471-51.266h51.137c-1.096,18.441-6.205,35.816-14.467,51.266H323.195z M356.891,222.082     c-15.116,20.618-36.384,36.455-61.084,44.771c9.46-11.315,17.402-26.623,23.222-44.771H356.891z M356.891,74.551h-37.862     c-5.82-18.148-13.762-33.456-23.222-44.771C320.506,38.096,341.775,53.933,356.891,74.551z M263.501,24.35     c16,4.562,30.208,23.453,39.585,50.201h-39.585V24.35z M263.501,89.551h44.119c4.001,15.53,6.493,32.939,7.032,51.265h-51.151     V89.551z M263.501,155.816h51.151c-0.539,18.327-3.031,35.736-7.032,51.266h-44.119V155.816z M263.501,222.082h39.585     c-9.377,26.748-23.585,45.639-39.585,50.201V222.082z M376.794,219.081c0.366-0.486,0.68-1.013,0.921-1.581     c10.487-18.378,16.934-39.345,18.119-61.686h76.317v158.949H39.85V155.815h76.319c1.185,22.341,7.631,43.307,18.118,61.685     c0.241,0.569,0.556,1.096,0.922,1.583c24.353,41.409,69.377,69.267,120.792,69.267     C307.416,288.35,352.441,260.491,376.794,219.081z M391.873,114.4h80.277v26.415h-76.317     C395.353,131.757,394.002,122.926,391.873,114.4z M39.85,140.815V114.4h80.279c-2.129,8.526-3.48,17.357-3.96,26.415H39.85z      M248.501,155.816v51.266h-44.119c-4.001-15.53-6.493-32.939-7.032-51.266H248.501z M197.35,140.817     c0.539-18.327,3.031-35.736,7.032-51.266h44.119v51.266H197.35z M248.501,222.082v50.201     c-16.001-4.562-30.208-23.453-39.585-50.201H248.501z M216.195,266.853c-24.699-8.316-45.968-24.153-61.084-44.771h37.862     C198.793,240.231,206.735,255.538,216.195,266.853z M145.666,207.082c-8.262-15.45-13.371-32.825-14.467-51.266h51.137     c0.486,18.32,2.748,35.603,6.471,51.266H145.666z M248.501,24.35v50.201h-39.585C218.293,47.803,232.5,28.912,248.501,24.35z      M216.195,29.78c-9.46,11.315-17.402,26.622-23.222,44.771h-37.862C170.227,53.933,191.496,38.096,216.195,29.78z M145.665,89.55     h43.141c-3.722,15.663-5.984,32.947-6.47,51.266h-51.138C132.295,122.376,137.403,105,145.665,89.55z M15,98.617     c0-4.999,4.067-9.066,9.067-9.066h104.846c-1.495,3.22-2.872,6.504-4.123,9.85H32.35c-4.142,0-7.5,3.357-7.5,7.5v215.364     c0,4.143,3.358,7.5,7.5,7.5h447.3c4.143,0,7.5-3.357,7.5-7.5V106.9c0-4.143-3.357-7.5-7.5-7.5h-92.438     c-1.251-3.346-2.629-6.63-4.123-9.85h104.844c4.999,0,9.066,4.067,9.066,9.066v240.998H15V98.617z M364.467,470.584v18.133     H147.535v-18.133h58.749c0.007,0,0.013,0.001,0.019,0.001H305.7c0.007,0,0.013-0.001,0.019-0.001H364.467z M213.802,420.883     H298.2v34.701h-84.397L213.802,420.883z M497,396.817c0,4.998-4.067,9.066-9.066,9.066H305.7h-99.399H24.067     c-5,0-9.067-4.067-9.067-9.066v-42.201h482V396.817z" data-original="#000000" class="active-path" data-old_color="#000000" fill="#BFC5D8"/>
			<path d="M256.001,400.174c10.988,0,19.926-8.939,19.926-19.927c0-10.988-8.938-19.926-19.926-19.926     c-10.987,0-19.926,8.939-19.926,19.926S245.014,400.174,256.001,400.174z M256.001,375.321c2.716,0,4.926,2.21,4.926,4.926     c0.001,2.717-2.209,4.927-4.926,4.927c-2.716,0-4.926-2.21-4.926-4.927C251.075,377.531,253.285,375.321,256.001,375.321z" data-original="#000000" class="active-path" data-old_color="#000000" fill="#BFC5D8"/>
			<path d="M73.768,120.108H57.201c-4.142,0-7.5,3.357-7.5,7.5c0,4.143,3.358,7.5,7.5,7.5h16.567c4.142,0,7.5-3.357,7.5-7.5     C81.268,123.465,77.91,120.108,73.768,120.108z" data-original="#000000" class="active-path" data-old_color="#000000" fill="#BFC5D8"/>
		</g>
	</g>
</g></g> </svg>
