<?xml version="1.0"?>
<svg xmlns="http://www.w3.org/2000/svg" id="Guide" height="512px" viewBox="0 0 512 512" width="512px" class=""><g><g fill="rgb(0,0,0)"><path d="m421 502a26.03 26.03 0 0 0 26-26v-440a26.03 26.03 0 0 0 -26-26h-330a26.03 26.03 0 0 0 -26 26v440a26.03 26.03 0 0 0 26 26zm-344-26v-440a14.015 14.015 0 0 1 14-14h330a14.015 14.015 0 0 1 14 14v440a14.015 14.015 0 0 1 -14 14h-330a14.015 14.015 0 0 1 -14-14z" data-original="#000000" class="active-path" data-old_color="#000000" fill="#ACB4CD"/><path d="m136.391 333.845c1.77.013 177.8 1.348 247.249 1.449h.021a13.612 13.612 0 0 0 9.774-4.079 13.366 13.366 0 0 0 3.878-9.67l-4.183-236.939a21.728 21.728 0 0 0 -21.748-21.088h-234.945a21.641 21.641 0 0 0 -21.752 21.482v227.367a21.631 21.631 0 0 0 21.706 21.478zm248.494-11.051a1.7 1.7 0 0 1 -1.225.5c-69.409-.1-245.406-1.436-247.221-1.449a9.629 9.629 0 0 1 -9.752-9.478v-53.767l59.789-66.283.28-.334a9.907 9.907 0 0 1 16.194.931l45.812 76.08a21.909 21.909 0 0 0 35.181 3.036l25.389-29.119a9.914 9.914 0 0 1 15.762 1.188l.371.59 59.528 58.726.323 18.333a1.436 1.436 0 0 1 -.431 1.046zm-248.448-247.276h234.945a9.669 9.669 0 0 1 9.75 9.3l3.556 201.435-49.845-49.173a21.918 21.918 0 0 0 -34.558-2.061l-25.385 29.124a9.776 9.776 0 0 1 -8.317 3.312 9.67 9.67 0 0 1 -7.539-4.653l-45.811-76.08a21.907 21.907 0 0 0 -35.8-2.3l-50.745 56.256v-155.678a9.629 9.629 0 0 1 9.749-9.482z" data-original="#000000" class="active-path" data-old_color="#000000" fill="#ACB4CD"/><path d="m272.344 181.866c18.188 0 32.986-14.587 32.986-32.516s-14.8-32.516-32.986-32.516-32.986 14.587-32.986 32.516 14.798 32.516 32.986 32.516zm0-53.032a20.521 20.521 0 1 1 -20.986 20.516 20.779 20.779 0 0 1 20.986-20.516z" data-original="#000000" class="active-path" data-old_color="#000000" fill="#ACB4CD"/><path d="m376.366 382.535h-240.732a6 6 0 1 0 0 12h240.732a6 6 0 0 0 0-12z" data-original="#000000" class="active-path" data-old_color="#000000" fill="#ACB4CD"/><path d="m369.192 433.035h-226.384a6 6 0 0 0 0 12h226.384a6 6 0 0 0 0-12z" data-original="#000000" class="active-path" data-old_color="#000000" fill="#ACB4CD"/></g></g> </svg>
