<?xml version="1.0"?>
<svg xmlns="http://www.w3.org/2000/svg" xmlns:xlink="http://www.w3.org/1999/xlink" version="1.1" id="Capa_1" x="0px" y="0px" viewBox="0 0 512 512" style="enable-background:new 0 0 512 512;" xml:space="preserve" width="512px" height="512px" class=""><g><g>
	<g>
		<g>
			<path d="M496,192h-42.24c-3.39-10.508-7.617-20.727-12.64-30.56l29.92-29.92c6.204-6.241,6.204-16.319,0-22.56l-68-68     c-6.241-6.204-16.319-6.204-22.56,0l-29.92,29.92c-9.833-5.023-20.052-9.25-30.56-12.64V16c0-8.837-7.163-16-16-16h-96     c-8.837,0-16,7.163-16,16v42.24c-10.508,3.39-20.727,7.617-30.56,12.64l-29.92-29.92c-6.241-6.204-16.319-6.204-22.56,0l-68,68     c-6.204,6.241-6.204,16.319,0,22.56l29.92,29.92c-5.023,9.833-9.25,20.052-12.64,30.56H16c-8.837,0-16,7.163-16,16v96     c0,8.837,7.163,16,16,16h42.24c3.39,10.508,7.617,20.727,12.64,30.56l-29.92,29.92c-6.204,6.241-6.204,16.319,0,22.56     l67.84,67.84c6.241,6.204,16.319,6.204,22.56,0l29.92-29.92c9.833,5.023,20.052,9.25,30.56,12.64V496c0,8.837,7.163,16,16,16h96     c8.837,0,16-7.163,16-16v-42.24c10.508-3.39,20.727-7.617,30.56-12.64l29.92,29.92c6.241,6.204,16.319,6.204,22.56,0l67.84-67.84     c6.204-6.241,6.204-16.319,0-22.56l-29.92-29.92c5.14-9.874,9.474-20.148,12.96-30.72H496c8.837,0,16-7.163,16-16v-96     C512,199.163,504.837,192,496,192z M480,288h-38.24c-7.484-0.237-14.132,4.749-16,12c-4.084,15.897-10.386,31.14-18.72,45.28     c-3.765,6.288-2.777,14.331,2.4,19.52l27.04,27.04l-45.28,45.28l-27.04-27.04c-5.189-5.177-13.232-6.165-19.52-2.4     c-14.14,8.334-29.383,14.636-45.28,18.72c-7.251,1.868-12.237,8.516-12,16V480H224v-38.24c0.237-7.484-4.749-14.132-12-16     c-15.897-4.084-31.14-10.386-45.28-18.72c-6.288-3.765-14.331-2.777-19.52,2.4l-27.04,27.52l-45.12-45.12l27.04-27.04     c5.177-5.189,6.165-13.232,2.4-19.52c-8.334-14.14-14.636-29.383-18.72-45.28c-1.868-7.251-8.516-12.237-16-12H32v-64h38.24     c7.484,0.237,14.132-4.749,16-12c4.084-15.897,10.386-31.14,18.72-45.28c3.765-6.288,2.777-14.331-2.4-19.52l-27.52-27.04     l45.12-45.12l27.2,27.04c5.189,5.177,13.232,6.165,19.52,2.4c14.14-8.334,29.383-14.636,45.28-18.72     c7.251-1.868,12.237-8.516,12-16V32h64v38.24c-0.237,7.484,4.749,14.132,12,16c15.897,4.084,31.14,10.386,45.28,18.72     c6.288,3.765,14.331,2.777,19.52-2.4L392,75.52l45.28,45.28l-27.36,26.56c-5.177,5.189-6.165,13.232-2.4,19.52     c8.334,14.14,14.636,29.383,18.72,45.28c1.868,7.251,8.516,12.237,16,12H480V288z" data-original="#000000" class="active-path" data-old_color="#000000" fill="#A8B9C6"/>
			<path d="M256,160c-53.019,0-96,42.981-96,96s42.981,96,96,96s96-42.981,96-96S309.019,160,256,160z M256,320     c-35.346,0-64-28.654-64-64c0-35.346,28.654-64,64-64c35.346,0,64,28.654,64,64C320,291.346,291.346,320,256,320z" data-original="#000000" class="active-path" data-old_color="#000000" fill="#A8B9C6"/>
		</g>
	</g>
</g></g> </svg>
